{"asset":{"version":"2.0","generator":"Blockbench 4.12.6 glTF exporter"},"scenes":[{"nodes":[1],"name":"blockbench_export"}],"scene":0,"nodes":[{"name":"cube","mesh":0},{"children":[0]}],"bufferViews":[{"buffer":0,"byteOffset":0,"byteLength":1968,"target":34962,"byteStride":12},{"buffer":0,"byteOffset":1968,"byteLength":1968,"target":34962,"byteStride":12},{"buffer":0,"byteOffset":3936,"byteLength":1312,"target":34962,"byteStride":8},{"buffer":0,"byteOffset":5248,"byteLength":480,"target":34963}],"buffers":[{"byteLength":5728,"uri":"data:application/octet-stream;base64,"}],"accessors":[{"bufferView":0,"componentType":5126,"count":164,"max":[0.5,0.453125,0.578125],"min":[-0.5,-0.234375,-0.75],"type":"VEC3"},{"bufferView":1,"componentType":5126,"count":164,"max":[0.9701424837112427,1,1],"min":[-0.9701424837112427,-1,-1],"type":"VEC3"},{"bufferView":2,"componentType":5126,"count":164,"max":[0.7113381624221802,0.6692390441894531],"min":[0,0],"type":"VEC2"},{"bufferView":3,"componentType":5123,"count":240,"max":[163],"min":[0],"type":"SCALAR"}],"materials":[{"pbrMetallicRoughness":{"metallicFactor":0,"roughnessFactor":1,"baseColorTexture":{"index":0}},"alphaMode":"MASK","alphaCutoff":0.05,"doubleSided":true}],"textures":[{"sampler":0,"source":0,"name":"Ship"}],"samplers":[{"magFilter":9728,"minFilter":9728,"wrapS":33071,"wrapT":33071}],"images":[{"mimeType":"image/png","uri":"data:image/png;base64,"}],"meshes":[{"primitives":[{"mode":4,"attributes":{"POSITION":0,"NORMAL":1,"TEXCOORD_0":2},"indices":3,"material":0}]}]}